Coordinates
version=1
nRows=11
nColumns=36
inDegrees=yes

Units are S.I. units (second, meters, Newtons, ...)
If the header above contains a line with 'inDegrees', this indicates whether rotational values are in degrees (yes) or radians (no).

endheader
time	pelvis_tilt	pelvis_list	pelvis_rotation	pelvis_tx	pelvis_ty	pelvis_tz	hip_flexion_r	hip_adduction_r	hip_rotation_r	knee_angle_r	knee_angle_r_beta	ankle_angle_r	subtalar_angle_r	mtp_angle_r	hip_flexion_l	hip_adduction_l	hip_rotation_l	knee_angle_l	knee_angle_l_beta	ankle_angle_l	subtalar_angle_l	mtp_angle_l	lumbar_extension	lumbar_bending	lumbar_rotation	arm_flex_r	arm_add_r	arm_rot_r	elbow_flex_r	pro_sup_r	arm_flex_l	arm_add_l	arm_rot_l	elbow_flex_l	pro_sup_l
      1.96666670	     24.32703832	      1.32364121	     -3.48619425	     -0.16958428	      0.65701548	     -0.06463299	     57.08024557	     -5.81957680	      4.25840138	     91.58430248	      1.59844762	      1.39289734	     -7.70012779	     -7.49999985	     55.32319509	    -12.14747331	      2.20722988	     87.87918197	      1.53378107	     -0.78902619	     -7.70855860	     -7.49999985	    -52.22474772	     -1.87019938	      0.01308925	     18.44717832	    -16.36443265	     60.25989483	      5.40926212	     44.71530181	     16.58719392	    -16.04624157	     45.93000222	     10.17951505	     49.42110125
      1.98333330	     23.76600015	      1.35852043	     -3.51803988	     -0.16886565	      0.65692589	     -0.06485294	     57.59041599	     -5.84115786	      4.27299781	     91.48398359	      1.59669673	      1.61661709	     -7.27613003	     -7.49999985	     55.89531432	    -12.10440099	      2.36020502	     88.13892501	      1.53831444	     -0.13409025	     -6.70932059	     -7.49999985	    -52.56165773	     -1.81980869	     -0.10828797	     19.30027042	    -16.48735062	     65.58165179	      5.03399039	     46.30385984	     17.04417425	    -15.94013804	     47.84320663	      9.30039082	     50.24138445
      2.00000000	     23.05705789	      1.31004001	     -3.39960900	     -0.16683711	      0.65667505	     -0.06503127	     58.17581136	     -5.75058091	      4.36711665	     91.49624087	      1.59691066	      1.48901803	     -7.41635364	     -7.49999986	     56.61184136	    -11.99049105	      2.61331752	     87.81542640	      1.53266832	      0.31275203	     -6.00101196	     -7.49999986	    -53.23310667	     -1.63398398	     -0.30836937	     19.89627567	    -16.33556841	     63.54350987	      4.93437397	     47.47958364	     16.92907249	    -16.25838218	     46.14115024	     10.52181606	     51.20965762
      2.01666670	     22.41024911	      1.29357387	     -3.20295999	     -0.16554338	      0.65665063	     -0.06538456	     58.74524365	     -5.77220415	      4.40232447	     91.54513299	      1.59776398	      1.70610849	     -7.47004869	     -7.49999986	     57.44858437	    -11.92682122	      2.83870913	     87.96946006	      1.53535672	      0.04718869	     -6.00343704	     -7.49999986	    -53.87586689	     -1.50473529	     -0.24908763	     20.33737132	    -16.38815619	     62.62809764	      4.91977017	     47.89013393	     17.16405898	    -16.45272378	     45.27331297	     11.16532726	     51.67384570
      2.03333330	     21.54669360	      1.34739845	     -2.76376977	     -0.16381853	      0.65618722	     -0.06564285	     59.52572086	     -6.01715696	      4.36343548	     91.60208271	      1.59875795	      1.83999559	     -7.38951781	     -7.49999987	     58.43371174	    -11.57613154	      3.11453480	     88.00530753	      1.53598238	      0.19499937	     -5.80871947	     -7.49999987	    -54.42669174	     -1.33911514	     -0.07552869	     20.61875782	    -16.66320650	     70.33172844	      4.88946861	     38.97063769	     18.27258321	    -16.35125686	     48.27134719	     10.33207334	     50.95614255
      2.05000000	     20.45598218	      1.37216140	     -2.34968313	     -0.16202349	      0.65356210	     -0.06623334	     60.67500462	     -6.26856710	      4.29522118	     91.78115297	      1.60188331	      1.94048369	     -7.21061050	     -7.49999987	     59.81779625	    -11.27551709	      3.41584770	     88.22247618	      1.53977268	      0.29546607	     -5.77131279	     -7.49999987	    -54.83419298	     -1.20947095	      0.40039198	     20.54921204	    -17.00252002	     70.14963696	      5.03505122	     38.82550614	     19.15004416	    -16.45050640	     47.70014924	     10.78510963	     52.18541090
      2.06666670	     19.52284996	      1.34012199	     -1.94813387	     -0.16019167	      0.65322772	     -0.06632569	     61.60643156	     -6.46282823	      4.14166519	     91.84881651	      1.60306426	      1.95865832	     -7.26398038	     -7.49999987	     60.98229838	    -10.92316943	      3.79857561	     88.37403822	      1.54241794	      0.06597430	     -6.12004604	     -7.49999987	    -55.34689800	     -1.06464490	      0.83429093	     20.34775489	    -17.27419604	     66.96208528	      5.17891792	     41.30942108	     19.46440977	    -16.80422543	     45.01850363	     12.58275947	     53.10674097
      2.08333330	     18.48225498	      1.34313284	     -1.85812580	     -0.15850087	      0.65274709	     -0.06644062	     62.65177606	     -6.43867170	      4.15007772	     91.96731678	      1.60513248	      2.32040852	     -6.79071547	     -7.49999987	     62.07559035	    -10.81283583	      3.98867246	     88.30671074	      1.54124285	      0.09693004	     -6.31474465	     -7.49999987	    -55.50443817	     -1.12844112	      1.56709321	     19.83105368	    -17.75408957	     65.82990108	      5.73510393	     42.53850833	     20.40750711	    -16.52259584	     43.48506931	     12.22053154	     54.02707605
      2.10000000	     17.56473194	      1.33632191	     -1.82316520	     -0.15661005	      0.65225325	     -0.06618447	     63.52012920	     -6.39307702	      4.16719117	     91.91970148	      1.60430144	      2.46084497	     -6.77214960	     -7.49999987	     63.03660271	    -10.72455057	      4.01091712	     88.22904198	      1.53988728	     -0.48812110	     -7.07204967	     -7.49999987	    -55.83519377	     -1.19751427	      2.34992004	     19.66245927	    -18.17088123	     69.89819699	      5.57348801	     37.24104919	     21.25677142	    -16.59289897	     43.65693121	     12.74369703	     56.17060928
      2.11666670	     16.59303979	      1.37280148	     -1.78343143	     -0.15518272	      0.64957325	     -0.06635054	     64.62497502	     -6.39299761	      4.20704547	     92.01411609	      1.60594928	      2.51165593	     -6.62434370	     -7.49999987	     64.12596540	    -10.67949526	      4.00406368	     88.14916380	      1.53849314	     -0.90878949	     -7.91074332	     -7.49999987	    -55.94981246	     -1.18090827	      2.63680417	     20.04175024	    -18.50382798	     68.12604957	      5.63832244	     40.36827733	     21.34847297	    -16.79947743	     41.51684474	     13.71212473	     56.76023365
      2.13333330	     15.61198117	      1.23166241	     -2.01866984	     -0.14839749	      0.64911657	     -0.06854078	     65.58498191	     -6.21883093	      4.24247155	     92.19893137	      1.60917492	      2.63032718	     -6.46124371	     -7.49999987	     65.14710716	    -10.90695448	      3.96783431	     88.34395928	      1.54189296	     -1.52785430	     -9.04803702	     -7.49999987	    -55.84995706	     -1.10023790	      2.89753783	     20.36401855	    -18.77537345	     68.22308225	      5.57295243	     40.27364705	     21.55085159	    -16.92217324	     41.49493888	     13.91529741	     56.82717782
